<svg width="28" height="20" viewBox="0 0 28 20" fill="none" xmlns="http://www.w3.org/2000/svg">
<path d="M14.6416 18.9248C15.2568 18.9248 15.8369 18.626 16.9971 18.626C18.166 18.626 18.4912 18.9248 19.3613 18.9248C20.6621 18.9248 21.374 18.3711 21.374 17.4482C21.374 15.9014 19.7656 14.7852 17.0938 14.7852C15.7578 14.7852 15.1689 14.9434 14.4043 15.1191L13.4287 12.9219C12.4619 10.8125 10.8447 9.5293 8.72656 9.5293H7.68066C7.29395 9.5293 7.04785 9.3623 7.04785 8.99316C7.04785 8.4043 7.8125 8.25488 8.64746 8.25488C11.2842 8.25488 13.2969 9.66992 14.5186 12.5615L15.1162 13.9766C15.7139 13.8535 16.3555 13.8008 17.0059 13.8008C17.5244 13.8008 18.0078 13.8359 18.5176 13.9238C19.0625 13.5635 19.6777 13.1768 20.4951 12.8076C21.4883 13.4756 22.6045 13.9766 23.9668 13.9766C26.2695 13.9766 27.377 13.3877 27.377 11.0674C27.377 8.28125 25.3994 6.08398 22.5781 6.12793L20.3105 3.0166C19.0098 1.26758 17.4014 0.441406 15.8193 0.441406C14.5186 0.441406 12.4971 1.1709 12.4971 2.2168C12.4971 2.90234 13.9385 3.89551 15.0459 4.58984L20.0469 7.71875C19.6602 8.0791 19.3262 8.29004 18.8516 8.29004C18.1396 8.29004 17.3838 7.8418 16.3643 7.25293C13.6045 5.61816 11.5918 4.16797 8.69141 4.16797C5.78223 4.16797 3.47949 5.81152 2.29297 9.17773C1.33496 9.17773 0.623047 9.78418 0.623047 10.6895C0.623047 11.7002 1.43164 12.333 2.54785 12.333C3.84863 14.2666 5.87891 15.0137 8.46289 15.0137C8.60352 15.0137 8.74414 15.0049 8.88477 15.0049L12.4795 17.9932C13.3584 18.7842 13.9561 18.9248 14.6416 18.9248ZM23.5889 10.6895C23.1582 10.6895 22.8242 10.3291 22.8242 9.91602C22.8242 9.48535 23.1758 9.10742 23.5977 9.10742C24.0283 9.10742 24.3711 9.45898 24.3711 9.87207C24.3711 10.3027 24.0195 10.6895 23.5889 10.6895ZM8.08496 19.6279C9.75488 19.6279 10.792 19.3203 11.6445 18.7402L8.9375 16.4814C8.81445 16.4902 8.67383 16.499 8.49805 16.499C8.05859 16.499 7.36426 16.3672 6.59961 16.3672C5.62402 16.3672 5.01758 16.8945 5.01758 17.6768C5.01758 18.8545 6.22168 19.6279 8.08496 19.6279Z" fill="#AEAFB4"/>
</svg>
