<svg width="34" height="34" viewBox="0 0 34 34" fill="none" xmlns="http://www.w3.org/2000/svg">
<path fill-rule="evenodd" clip-rule="evenodd" d="M17 34C26.3888 34 34 26.3888 34 17C34 7.61116 26.3888 0 17 0C7.61116 0 0 7.61116 0 17C0 26.3888 7.61116 34 17 34ZM12.4354 17.5105C12.0482 17.5105 11.7245 17.2056 11.7245 16.8276C11.7245 16.4556 12.0482 16.1447 12.4354 16.1447H16.3262V12.4071C16.3262 12.0352 16.6499 11.7242 17.037 11.7242C17.4242 11.7242 17.7479 12.0352 17.7479 12.4071V16.1447H21.6387C22.0258 16.1447 22.3495 16.4556 22.3495 16.8276C22.3495 17.2056 22.0258 17.5105 21.6387 17.5105H17.7479V21.248C17.7479 21.62 17.4242 21.9309 17.037 21.9309C16.6499 21.9309 16.3262 21.62 16.3262 21.248V17.5105H12.4354Z" fill="#33CF69"/>
</svg>
