<svg width="34" height="34" viewBox="0 0 34 34" fill="none" xmlns="http://www.w3.org/2000/svg">
<g opacity="0.3">
<path d="M34 17C34 26.3888 26.3888 34 17 34C7.61116 34 0 26.3888 0 17C0 7.61116 7.61116 0 17 0C26.3888 0 34 7.61116 34 17Z" fill="#33CF69"/>
<path d="M15.8371 23C15.3234 23 14.9096 22.7684 14.5529 22.3052L11.3567 18.2955C11.1141 17.9916 11 17.6731 11 17.3402C11 16.6019 11.5707 16.0519 12.2699 16.0519C12.7122 16.0519 13.0832 16.2545 13.3543 16.6309L15.78 19.772L20.56 11.7238C20.8312 11.2606 21.2449 11 21.6873 11C22.4007 11 23 11.5356 23 12.2304C23 12.5633 22.8288 12.9107 22.6718 13.1713L17.0642 22.2762C16.7788 22.7394 16.3365 23 15.8371 23Z" fill="white"/>
</g>
</svg>
