<svg width="15" height="15" viewBox="0 0 15 15" fill="none" xmlns="http://www.w3.org/2000/svg">
<path d="M5.41211 14.186C5.76904 14.186 6.05127 14.0283 6.25049 13.7212L14.0947 1.36963C14.2441 1.12891 14.3022 0.946289 14.3022 0.755371C14.3022 0.298828 14.0034 0 13.5469 0C13.2148 0 13.0322 0.10791 12.833 0.42334L5.37891 12.3018L1.51074 7.23828C1.30322 6.94775 1.0957 6.83154 0.796875 6.83154C0.32373 6.83154 0 7.15527 0 7.61182C0 7.80273 0.0830078 8.01855 0.240723 8.21777L4.54883 13.7046C4.79785 14.0283 5.05518 14.186 5.41211 14.186Z" fill="#3772E7"/>
</svg>
